<svg id="Layer_1" data-name="Layer 1" xmlns="http://www.w3.org/2000/svg" viewBox="0 0 306.59 121.71"><title>arrowArtboard 3</title><path d="M294.66,50c.07-5.13,1.66-12.51,3.34-20.31,1.34-6.21,2.72-12.63,3.38-18.2l.32-2.73-1.94,1.95c-3,3-6.51,8-9.32,12-1.71,2.44-3.19,4.54-4.1,5.55-31.84,35.41-66.22,60.47-105.1,76.61-58.74,24.38-111.62,22.32-161.63-6.3l-2-1.14A81.34,81.34,0,0,1,4.4,88.69c-.48-.4-.92-.75-1.32-1.06C1.35,86.28.5,85.62,0,83.37a4.18,4.18,0,0,1,3.3,1.48c.38.35.83.75,1.41,1.23l2.92,2.39a91.39,91.39,0,0,0,10.45,7.86c10.56,6.56,32,16.37,42.68,18.72,18.07,4,33.67,7.38,54.17,5.71,56.35-4.6,115.1-36.31,165.42-89.31,3.82-4,15.79-17.85,18.52-24.45l.78-1.9-2,.64c-11.8,3.91-22.24,6.47-30.18,7.42-2.1.25-3.63.47-4.9.65s-2.22.32-3.25.42l.59-.15c1.91-.5,4.07-1.07,7.62-2.22,3.78-1.23,6.69-2,9.76-2.83,2.53-.68,5.16-1.38,8.52-2.4a29.05,29.05,0,0,0,4.84-1.88c1.31-.61,3.1-1.45,6.63-2.84C302.89-.3,303.9-.27,305.58.4c.84.33,1.24,2.21.89,4.28a136.24,136.24,0,0,1-6,24.06A159.46,159.46,0,0,0,294.66,50v0"/></svg>