<svg id="Layer_1" data-name="Layer 1" xmlns="http://www.w3.org/2000/svg" viewBox="0 0 314 157.69"><title>arrowArtboard 7</title><path d="M121.44,131.06c4-7.62,6.46-15.07,9-23,1.07-3.32,2.18-6.75,3.43-10.25,1.78-5,3.57-10.13,5.3-15.14,5.5-15.87,11.18-32.28,18.07-47.16C169,10.23,191.53-1.1,222.52,2.8c1.17.15,2.57.23,4,.31a39.89,39.89,0,0,1,7.11.79c23.23,6,47.75,13.81,69.6,30.16.58.44,1.58,1.06,2.12,1.48,2.31,1.85,4.58,2.79,8.54,4.52.26-.61-.32-1.3-.67-1.73-1.69-2-2.26-2.1-5-3.91-.85-.57-1.66-1.05-2.5-1.52C282,19.3,255.84,6.06,226.12,1.29,191.51-4.27,167.6,8.11,153,39.15c-5,10.55-8.64,21.94-12.19,32.95-1.76,5.47-3.59,11.12-5.55,16.61-1.3,3.65-2.57,7.31-3.85,11-3.81,11-7.74,22.28-12.44,33.08-5.58,12.83-15.09,20.66-26.78,22.05-28.73,3.43-54-12.27-75.07-25.43L11.92,127l5.74-.25c3.66-.5,7.58-.89,11.37-1.27,6.83-.69,6-.09,11.13-1.28.74-.17,2.23-.4,3-.52a10.42,10.42,0,0,0,4-1.2,25.15,25.15,0,0,0-4.75.35c-2.18.2-4.05.42-6.26.65a155.13,155.13,0,0,1-16.22.73c-5,0-6.13.27-10.15-.67-1.58-.37-2-.42-3.89-.79-.64-.13-2.34-.4-3.26-.66A8.83,8.83,0,0,0,0,121.69c.18.7,3.46,4.11,4.16,4.91l3.56,4.61c8.05,9.19,7.88,9.13,16.6,18.61a11.42,11.42,0,0,0,3.61,3c0-.32-.55-.54-1.17-1.23-.35-.4-2.42-3-2.75-3.4-2.65-3.26-4.38-5.75-7.81-9.82a71.39,71.39,0,0,1-5.8-7.59L8.47,128.3l3.18,1.55c1.82.9,5.57,2.88,9.54,5,5.3,2.79,11.3,6,12.62,6.51,2.82,1.19,5.76,2.48,8.77,3.79,9.71,4.24,19.75,8.63,29,11.31,22.7,4.57,38.1-3.26,49.88-25.38"/></svg>