<svg id="Layer_1" data-name="Layer 1" xmlns="http://www.w3.org/2000/svg" viewBox="0 0 238.76 198.69"><title>arrowArtboard 6</title><path d="M0,151.91c2,4.42,3.57,11.36,5.25,18.71,1.33,5.84,2.71,11.89,4.37,16.92l.81,2.46.88-2.44a98.29,98.29,0,0,0,3.19-14c.49-2.77.92-5.15,1.29-6.38,13.11-43,32.53-78.14,59.35-107.45C115.67,15.45,161.72-3.88,215.92.64l2.19.18A76.85,76.85,0,0,1,232.87,3c.57.15,1.08.27,1.55.37,2,.47,3,.69,4.34,2.42a4,4,0,0,1-3.42,0c-.46-.14-1-.31-1.7-.49l-3.45-.88a88.51,88.51,0,0,0-12.07-2.56c-11.65-1.39-33.87-1.25-44,1-17,3.82-31.74,7.12-48.61,16.73-46.37,26.41-84,77-105.88,142.38-1.67,5-6.39,21.57-6.09,28.3l.09,1.94L15.07,191c8.53-8.05,16.44-14.41,22.86-18.39,1.69-1.05,2.91-1.84,3.93-2.51s1.78-1.15,2.61-1.65l-.44.37c-1.44,1.18-3.06,2.53-5.63,4.93-2.75,2.56-4.92,4.39-7.22,6.31-1.9,1.6-3.87,3.24-6.34,5.46A28.6,28.6,0,0,0,21.45,189c-.87,1-2.07,2.48-4.54,5.08-3.88,4.11-4.76,4.49-6.46,4.59-.85.05-1.94-1.4-2.46-3.31a127.15,127.15,0,0,1-4.44-23A150.75,150.75,0,0,0,0,151.89v0"/></svg>