<svg id="Layer_1" data-name="Layer 1" xmlns="http://www.w3.org/2000/svg" viewBox="0 0 229.38 77.69"><title>arrowArtboard 5</title><path d="M7.63,61.53c3.21,2.56,13.64,7.82,17,11.09,1.16,1.13,3.72,3.06,3.58,4.86,0,.57-2.39-.15-3.22-.68-10.72-6.91-12.23-8-25-16.57,16.26-4.17,21.11-13.8,35-17.37.37.82-11.45,6.71-13.47,8.24C17.15,54.17,14.16,55,9.07,59.85c22.35-.05,54.46.5,72.25-2.59,11.56-2,24.07-7.35,30.39-25.26C118.78,9.25,119.39-2.68,151.22.51,176.06,3,196.8,8.21,221.36,13.29c2.8.57,5.57,1.19,8,3.5-3.15,1.13-3.48.21-6.23-.42-6.51-1.5-12.12-3.77-18.62-4.82a419,419,0,0,0-64.45-10c-14.4-1-19.86,5.7-23.21,19.63-6.35,26.42-16.12,36-43.48,38.75C55,61.79,26.58,61.08,7.63,61.53"/></svg>