<svg xmlns="http://www.w3.org/2000/svg" width="40.141" height="33.34" viewBox="0 0 40.141 33.34">
  <g id="Group_36" data-name="Group 36" transform="translate(0 -41.674)">
    <g id="Group_18" data-name="Group 18" transform="translate(0 41.674)">
      <path id="Path_34" data-name="Path 34" d="M37.884,55.2l.063.014H11.087l8.444-8.462a2.218,2.218,0,0,0,0-3.118l-1.314-1.315a2.2,2.2,0,0,0-3.1,0L.64,56.787a2.213,2.213,0,0,0,0,3.113L15.114,74.375a2.2,2.2,0,0,0,3.1,0L19.53,73.06a2.174,2.174,0,0,0,.64-1.551,2.109,2.109,0,0,0-.64-1.522l-8.539-8.51H37.914a2.275,2.275,0,0,0,2.226-2.252V57.367A2.231,2.231,0,0,0,37.884,55.2Z" transform="translate(0 -41.674)" fill="#fff"/>
    </g>
  </g>
</svg>
