<svg xmlns="http://www.w3.org/2000/svg" width="18.32" height="17.506" viewBox="0 0 18.32 17.506">
  <defs>
    <style>
      .cls-1 {
        fill: #f7f2eb;
        fill-rule: evenodd;
      }
    </style>
  </defs>
  <g id="Group_1369" data-name="Group 1369" transform="translate(-941.621 -550.484)">
    <path id="Path_1483" data-name="Path 1483" class="cls-1" d="M947.669,614.807h-.717v.284h.658v.24h-.658v.349h.748v.24h-1.025v-1.351h.993v.239Z" transform="translate(-3.945 -50.016)"/>
    <path id="Path_1484" data-name="Path 1484" class="cls-1" d="M952.962,615.425l.135.128a.33.33,0,0,1-.152.036c-.152,0-.367-.094-.367-.472s.215-.472.367-.472.367.094.367.472a.6.6,0,0,1-.062.29l-.143-.133-.145.152Zm.638.312-.147-.139a.756.756,0,0,0,.141-.482.652.652,0,1,0-.649.711.7.7,0,0,0,.346-.091l.16.153.149-.153Z" transform="translate(-8.332 -49.89)"/>
    <path id="Path_1485" data-name="Path 1485" class="cls-1" d="M960.384,615.446c0,.355-.215.508-.555.508a.578.578,0,0,1-.429-.164.49.49,0,0,1-.105-.327v-.9h.288v.876c0,.189.109.271.241.271.194,0,.273-.094.273-.258v-.889h.288v.878Z" transform="translate(-13.794 -50.016)"/>
    <path id="Path_1486" data-name="Path 1486" class="cls-1" d="M965.424,614.873h0l.167.534h-.345l.173-.534Zm-.249.767h.5l.086.279h.307l-.476-1.35h-.326l-.482,1.35h.3l.094-.279Z" transform="translate(-18.079 -50.016)"/>
    <path id="Path_1487" data-name="Path 1487" class="cls-1" d="M971.911,615.674h.671v.245h-.954v-1.351h.282v1.106Z" transform="translate(-23.42 -50.016)"/>
    <path id="Path_1488" data-name="Path 1488" class="cls-1" d="M979.845,615.312v.606h-.282v-1.351h.282v.511h.527v-.511h.282v1.351h-.282v-.606Z" transform="translate(-29.613 -50.016)"/>
    <path id="Path_1489" data-name="Path 1489" class="cls-1" d="M985.977,615.117c0-.378.215-.472.367-.472s.367.094.367.472-.214.472-.367.472-.367-.094-.367-.472Zm-.282,0a.652.652,0,1,0,.648-.711.63.63,0,0,0-.648.711Z" transform="translate(-34.399 -49.89)"/>
    <path id="Path_1490" data-name="Path 1490" class="cls-1" d="M993.87,615.446c0,.355-.215.508-.555.508a.579.579,0,0,1-.429-.164.489.489,0,0,1-.1-.327v-.9h.287v.876a.236.236,0,0,0,.241.271c.193,0,.272-.094.272-.258v-.889h.288v.878Z" transform="translate(-39.929 -50.016)"/>
    <path id="Path_1491" data-name="Path 1491" class="cls-1" d="M999.133,615.376c0,.075.041.218.286.218.134,0,.282-.032.282-.175,0-.1-.1-.133-.244-.167l-.145-.034c-.219-.051-.429-.1-.429-.4,0-.151.081-.416.519-.416.414,0,.525.271.527.436h-.271c-.007-.06-.03-.2-.276-.2-.107,0-.235.04-.235.162,0,.106.087.128.143.141l.329.081c.184.045.353.121.353.363,0,.407-.414.442-.532.442-.492,0-.577-.284-.577-.451Z" transform="translate(-44.676 -49.89)"/>
    <path id="Path_1492" data-name="Path 1492" class="cls-1" d="M1005.254,615.918h-.281v-1.351h.281v1.351Z" transform="translate(-49.445 -50.016)"/>
    <path id="Path_1493" data-name="Path 1493" class="cls-1" d="M1008.412,614.568h.263v1.351h-.282l-.551-.963h0v.963h-.263v-1.351h.3l.535.94h0v-.94Z" transform="translate(-51.475 -50.016)"/>
    <path id="Path_1494" data-name="Path 1494" class="cls-1" d="M1014.421,615.064h.564v.728h-.188l-.028-.169a.5.5,0,0,1-.421.2.629.629,0,0,1-.62-.707.648.648,0,0,1,.66-.715.534.534,0,0,1,.592.455h-.282a.3.3,0,0,0-.3-.222c-.2,0-.388.139-.388.485,0,.369.2.465.393.465a.333.333,0,0,0,.327-.3h-.314v-.227Z" transform="translate(-56.277 -49.89)"/>
    <path id="Path_1495" data-name="Path 1495" class="cls-1" d="M946.684,624.463c0-.378.214-.472.366-.472s.367.094.367.472-.214.472-.367.472-.366-.095-.366-.472Zm-.282,0a.651.651,0,1,0,.649-.711.631.631,0,0,0-.649.711Z" transform="translate(-3.731 -57.184)"/>
    <path id="Path_1496" data-name="Path 1496" class="cls-1" d="M954.831,624.544v-.4h.224c.175,0,.248.055.248.187,0,.06,0,.21-.211.21Zm0,.234h.323a.414.414,0,0,0,.431-.431.4.4,0,0,0-.419-.432h-.617v1.35h.282v-.487Z" transform="translate(-10.09 -57.311)"/>
    <path id="Path_1497" data-name="Path 1497" class="cls-1" d="M961.751,624.544v-.4h.224c.175,0,.248.055.248.187,0,.06,0,.21-.21.21Zm0,.234h.323a.414.414,0,0,0,.431-.431.4.4,0,0,0-.419-.432h-.617v1.35h.282v-.487Z" transform="translate(-15.491 -57.311)"/>
    <path id="Path_1498" data-name="Path 1498" class="cls-1" d="M968.4,624.463c0-.378.214-.472.367-.472s.366.094.366.472-.215.472-.366.472-.367-.095-.367-.472Zm-.282,0a.651.651,0,1,0,.649-.711.631.631,0,0,0-.649.711Z" transform="translate(-20.681 -57.184)"/>
    <path id="Path_1499" data-name="Path 1499" class="cls-1" d="M976.54,624.508v-.362h.351c.166,0,.2.106.2.177,0,.134-.071.184-.218.184Zm-.277.756h.277v-.529h.291c.209,0,.22.071.22.256a.911.911,0,0,0,.03.273h.313v-.036c-.06-.022-.06-.071-.06-.268,0-.253-.06-.294-.171-.343a.322.322,0,0,0,.208-.321.38.38,0,0,0-.425-.382h-.683v1.35Z" transform="translate(-27.037 -57.311)"/>
    <path id="Path_1500" data-name="Path 1500" class="cls-1" d="M983.644,625.264h-.282v-1.112h-.408v-.239h1.1v.239h-.408v1.112Z" transform="translate(-32.26 -57.31)"/>
    <path id="Path_1501" data-name="Path 1501" class="cls-1" d="M990.983,624.792c0,.355-.214.509-.555.509a.58.58,0,0,1-.428-.165.488.488,0,0,1-.105-.327v-.9h.287v.876a.237.237,0,0,0,.241.272c.194,0,.273-.095.273-.258v-.889h.288v.878Z" transform="translate(-37.676 -57.311)"/>
    <path id="Path_1502" data-name="Path 1502" class="cls-1" d="M998.1,623.914h.264v1.351h-.283l-.551-.963h0v.963h-.264v-1.351h.3l.536.94h0v-.94Z" transform="translate(-43.424 -57.31)"/>
    <path id="Path_1503" data-name="Path 1503" class="cls-1" d="M1004.892,625.264h-.283v-1.351h.283v1.351Z" transform="translate(-49.161 -57.31)"/>
    <path id="Path_1504" data-name="Path 1504" class="cls-1" d="M1008.464,625.264h-.282v-1.112h-.407v-.239h1.1v.239h-.408v1.112Z" transform="translate(-51.631 -57.31)"/>
    <path id="Path_1505" data-name="Path 1505" class="cls-1" d="M1014.971,625.264h-.282v-.51l-.466-.841h.333l.28.587.268-.587h.319l-.451.844v.507Z" transform="translate(-56.664 -57.31)"/>
    <path id="Path_1506" data-name="Path 1506" class="cls-1" d="M950.713,550.484l-9.092,4.478v2.1h1.018v6.31h16.08v-6.31h1.222v-2.1l-9.228-4.478Zm6.039,10.991H944.606v-5.767l6.107-3.121,6.039,3.121v5.767Z"/>
    <path id="Path_1507" data-name="Path 1507" class="cls-1" d="M975.689,576.318h-5.631v-2.035h5.631v2.035Z" transform="translate(-22.194 -18.575)"/>
    <path id="Path_1508" data-name="Path 1508" class="cls-1" d="M975.689,589.61h-5.631v-2.036h5.631v2.036Z" transform="translate(-22.194 -28.948)"/>
  </g>
</svg>
