<svg id="Layer_1" data-name="Layer 1" xmlns="http://www.w3.org/2000/svg" width="42" height="26.5" viewBox="0 0 206.62 126.5"><defs><style>.cls-1{fill:#fff;}</style></defs><title>Polaris-Pacific_secondary_logo_WHT</title><path class="cls-1" d="M26.72,18.46c0-1.8-.74-2.45-1.88-2.45H22.22V33h2.62c1.14,0,1.88-.65,1.88-2.37Zm-.41,22.66H22.22V61.66H11.67V7.17H26.31c5.48,0,10.31,3.27,10.31,10.88V30.24c0,7.61-4.83,10.88-10.31,10.88"/><path class="cls-1" d="M56.09,18.05a2.3,2.3,0,0,0-2.46-2.37,2.36,2.36,0,0,0-2.53,2.37V50.77a2.36,2.36,0,0,0,2.53,2.38,2.3,2.3,0,0,0,2.46-2.38ZM53.63,62.72c-7.44,0-13.25-5.16-13.25-12.6V18.7c0-7.44,5.81-12.51,13.25-12.51S66.8,11.26,66.8,18.7V50.12c0,7.44-5.81,12.6-13.17,12.6"/><polygon class="cls-1" points="71.54 7.17 71.54 61.65 93.06 61.65 93.06 52.33 82.01 52.33 82.01 7.17 71.54 7.17"/><path class="cls-1" d="M107.94,23.2l1.8,21.19h-4.17Zm-6-16L94,61.65h9.49l.9-8.75h6.21l.74,8.75h10.55L114.08,7.17Z"/><path class="cls-1" d="M139.85,18.46c0-1.8-.66-2.45-1.8-2.45h-2.62V31.39h2.62c1.14,0,1.8-.66,1.8-2.46Zm2.78,43.19c-1.64,0-2.54-5-2.54-8.42V42.35c0-1.39-.73-2.87-2.21-2.87h-2.45V61.65H124.87V7.17h14.57c5.15,0,10.47,3.27,10.47,10.55V28.6a7.89,7.89,0,0,1-4.34,6.71,8,8,0,0,1,4.5,6.71V52.57a31.51,31.51,0,0,0,1.39,8.84v.24Z"/><rect class="cls-1" x="154.9" y="7.17" width="10.55" height="54.48"/><path class="cls-1" d="M182.38,62.72c-8.1,0-12.92-4.75-12.92-12.85V45.13h9.08V50.2c0,2.21,1.14,3.68,3.35,3.68s3.19-1.31,3.19-3.6c0-4.42-2.62-7.77-6.3-12.35C174.69,33.35,169.7,26.8,169.7,20c0-7.44,4.34-13.82,13.17-13.82,7,0,11.78,5.07,11.78,12.76v4.74h-9.08V18.3c0-2-1.14-3.11-2.7-3.11a3,3,0,0,0-3,3.19c0,5.23,2.62,7.52,6.38,12.51,4.43,5.32,9,11,9,18.08,0,8.59-5.56,13.75-12.84,13.75"/><path class="cls-1" d="M26.72,76.05c0-1.8-.74-2.45-1.88-2.45H22.22v17h2.62c1.14,0,1.88-.65,1.88-2.37Zm-.41,22.66H22.22v20.54H11.67V64.76H26.31c5.48,0,10.31,3.28,10.31,10.88V87.83c0,7.61-4.83,10.88-10.31,10.88"/><path class="cls-1" d="M50.28,80.8,52.08,102H47.91Zm-6-16-7.94,54.49h9.49l.9-8.76H53l.73,8.76H64.27L56.41,64.76Z"/><path class="cls-1" d="M79.73,120.31c-7.69,0-13.67-5.32-13.67-13.09V76.79c0-7.77,6-13.09,13.67-13.09,7.52,0,12.1,5.15,12.1,12.6v8.26H82.67V76.14a2.65,2.65,0,0,0-2.94-2.87,2.69,2.69,0,0,0-3,2.87v31.74a2.69,2.69,0,0,0,3,2.86,2.65,2.65,0,0,0,2.94-2.86V99.37h9.16v8.34c0,7.45-4.58,12.6-12.1,12.6"/><rect class="cls-1" x="96.08" y="64.76" width="10.55" height="54.48"/><polygon class="cls-1" points="111.79 64.76 111.79 119.25 122.26 119.25 122.26 96.18 130.11 96.18 130.11 87.26 122.26 87.26 122.26 73.68 133.31 73.68 133.31 64.76 111.79 64.76"/><rect class="cls-1" x="136.74" y="64.76" width="10.55" height="54.48"/><path class="cls-1" d="M165.61,120.31c-7.69,0-13.66-5.32-13.66-13.09V76.79c0-7.77,6-13.09,13.66-13.09,7.53,0,12.11,5.15,12.11,12.6v8.26h-9.16V76.14a2.65,2.65,0,0,0-2.95-2.87,2.69,2.69,0,0,0-2.94,2.87v31.74a2.68,2.68,0,0,0,2.94,2.86,2.65,2.65,0,0,0,2.95-2.86V99.37h9.16v8.34c0,7.45-4.58,12.6-12.11,12.6"/></svg>