<svg id="Layer_1" data-name="Layer 1" xmlns="http://www.w3.org/2000/svg" viewBox="0 0 310.23 129.31"><title>arrowArtboard 2</title><path d="M196.59,20.23c-5,6.44-8.45,12.9-12.08,19.73-1.52,2.88-3.1,5.85-4.83,8.87-2.44,4.28-4.94,8.75-7.35,13.07-7.66,13.72-15.58,27.9-24.4,40.57-15,21.57-38.16,29.39-66.92,22.61-1.09-.25-2.4-.47-3.79-.7a37.74,37.74,0,0,1-6.61-1.47c-21.09-7.85-43.12-17.47-61.31-34.5C8.82,88,8,87.29,7.53,86.85c-1.91-1.91-3.92-3-7.41-5-.34.52.11,1.21.38,1.63,1.28,2,1.82,2.13,4.11,4,.72.6,1.42,1.11,2.13,1.63,20.47,14.76,43.2,29.44,70.62,36.88,32,8.65,56.52,0,75.12-26.39,6.32-9,11.56-18.85,16.62-28.39,2.52-4.74,5.12-9.64,7.83-14.38,1.79-3.15,3.56-6.31,5.34-9.47C187.57,38,193.05,28.19,199.16,19c7.27-11,17.49-17,28.78-17,27.76,0,49.3,16.75,67.22,30.83l4.59,2.73-5.48-.38c-3.54.06-7.32,0-11-.05-6.58-.1-5.74-.56-10.74,0-.74.08-2.19.13-2.89.16a10.86,10.86,0,0,0-3.95.66,26.55,26.55,0,0,0,4.56.19c2.09,0,3.9,0,6,.07,3.63,0,9.22.34,15.49,1,4.72.55,5.85.41,9.51,1.68,1.44.5,1.83.59,3.56,1.13.59.18,2.16.6,3,.93a8.64,8.64,0,0,0,2.37.59c-.06-.64-2.64-4.06-3.18-4.86l-2.66-4.53c-6.21-9.12-6.07-9-12.87-18.5a10,10,0,0,0-3-3.07c-.06.29.44.55.92,1.24.27.4,1.83,3,2.08,3.35,2,3.22,3.27,5.65,5.89,9.67a60.52,60.52,0,0,1,4.32,7.44l1.45,2.42-2.77-1.73c-1.59-1-4.84-3.19-8.28-5.49-4.58-3.08-9.78-6.56-10.95-7.2-2.49-1.37-5.08-2.84-7.73-4.34C265,11,256.11,6,247.77,2.64,227-3.87,211.17,1.55,196.59,20.23"/></svg>