<svg id="Layer_1" data-name="Layer 1" xmlns="http://www.w3.org/2000/svg" viewBox="0 0 203.61 55.86"><title>arrowArtboard 4</title><path d="M197.93,5c-1.58,3.33-8,11.69-9.41,15.67-.49,1.37-1.8,3.94-1,5.34.26.45,1.88-1.06,2.34-1.82,6-9.8,6.75-11.28,13.72-23.24C188.75,4,181-1.9,168.25.67c0,.8,12,.93,14.22,1.37,4.8.77,7.54.23,13.62,2.2C177.92,13,152.06,26,136.38,30.5,126.19,33.41,113.9,34,101.63,22,86.83,6.33,81.57-3.09,57,12,37.81,23.76,23,36.12,5.12,49.87c-2,1.57-4,3.15-5.12,6,3-.33,2.91-1.2,4.9-2.79,4.68-3.77,8.33-7.81,13.2-11.21A376.61,376.61,0,0,1,66.46,8.48C77.77,2,84.87,5.3,93.14,15.27c15.69,18.9,27.46,22.84,50.76,14.31,15.7-5.75,38.46-17.47,54-24.55"/></svg>