<svg xmlns="http://www.w3.org/2000/svg" width="32" height="32" viewBox="0 0 32 32">
  <g id="Group_51" data-name="Group 51" transform="translate(0 0)">
    <path id="Path_37" data-name="Path 37" d="M16.028,0A16,16,0,1,0,32,16.028,16.017,16.017,0,0,0,16.028,0Zm0,29.517A13.545,13.545,0,1,1,29.573,15.972,13.548,13.548,0,0,1,16.028,29.517Z" transform="translate(0 0)" fill="#fff"/>
    <path id="Path_38" data-name="Path 38" d="M25.713,23.857l3.512-3.512a1.242,1.242,0,0,0-1.756-1.756L23.957,22.1l-3.512-3.512a1.242,1.242,0,0,0-1.756,1.756L22.2,23.857l-3.512,3.512a1.242,1.242,0,1,0,1.756,1.756l3.512-3.512,3.512,3.512a1.253,1.253,0,0,0,1.756,0,1.218,1.218,0,0,0,0-1.756Z" transform="translate(-7.985 -7.941)" fill="#fff"/>
  </g>
</svg>
