<svg xmlns="http://www.w3.org/2000/svg" width="151.531" height="23.667" viewBox="0 0 151.531 23.667">
  <g id="Group_4" data-name="Group 4" transform="translate(0 0)">
    <circle id="Ellipse_1" data-name="Ellipse 1" cx="3.283" cy="3.283" r="3.283" transform="translate(121.271 8.875)" fill="#bc005f"/>
    <g id="Group_3" data-name="Group 3" transform="translate(0 0)">
      <g id="Group_1" data-name="Group 1" transform="translate(0 0.04)">
        <path id="Path_1" data-name="Path 1" d="M170.41,269.264a2.781,2.781,0,0,0-5.127,0l-.194.459h0l-4.811,11.447-5.01-11.906a2.781,2.781,0,1,0-5.116,2.183l2.06,4.907a2.778,2.778,0,0,0-5.093.071l-.2.462h0l-4.345,10.368a2.78,2.78,0,1,0,5.119,2.173l.206-.488h0l4.329-10.325a2.754,2.754,0,0,0,.043-2.112l1.443,3.438h0l.244.569,3.748,8.919a2.782,2.782,0,0,0,5.133,0l.2-.488h0l3.777-8.986h0l1.021-2.43,4.8,11.416.209.488a2.779,2.779,0,0,0,5.343-1.074,2.808,2.808,0,0,0-.22-1.091Z" transform="translate(-142.344 -267.556)" fill="#fff"/>
        <path id="Path_2" data-name="Path 2" d="M285.624,267.55a2.778,2.778,0,0,0-2.566,1.707l-.211.5h0l-3.768,8.969h-.005l-1.481,3.529a2.766,2.766,0,0,0,.219-1.081,2.738,2.738,0,0,0-.226-1.095l-4.347-10.372,0,0-.194-.465a2.782,2.782,0,1,0-5.114,2.193l4.329,10.325h.005l.2.489a2.78,2.78,0,0,0,5.126,0l-2.086,4.971a2.76,2.76,0,0,0-.234,1.111,2.781,2.781,0,0,0,5.345,1.082l.2-.472h0l7.362-17.523a2.779,2.779,0,0,0-2.554-3.877Z" transform="translate(-234.274 -267.546)" fill="#fff"/>
      </g>
      <g id="Group_2" data-name="Group 2" transform="translate(59.106)">
        <path id="Path_3" data-name="Path 3" d="M510,269.736l-.2-.472a2.781,2.781,0,1,0-5.111,2.193l2.084,4.965a2.781,2.781,0,0,0-5.123.01l-.206.492,0,0-4.327,10.325a2.743,2.743,0,0,0-.236,1.111,2.782,2.782,0,0,0,5.345,1.081l.2-.462h0l4.345-10.372a2.771,2.771,0,0,0,.009-2.171l1.479,3.523.006,0,3.768,8.969h0l.213.505a2.781,2.781,0,1,0,5.12-2.169Z" transform="translate(-461.465 -267.516)" fill="#fff"/>
        <path id="Path_4" data-name="Path 4" d="M663.2,285.767h-5.665v-3.78h2.526c.045,0,.09.007.136.007a2.671,2.671,0,1,0,0-5.343c-.022,0-.043,0-.066,0h-2.6v-3.793H663.2a2.67,2.67,0,0,0,0-5.34c-.022,0-.044,0-.066,0h-8.193c-.022,0-.044,0-.065,0a2.672,2.672,0,0,0-2.671,2.672c0,.034,0,.067,0,.1v6.348a2.669,2.669,0,0,0,0,5.339v6.463h0a2.669,2.669,0,0,0,2.653,2.664H663.2a2.67,2.67,0,0,0,0-5.34Z" transform="translate(-573.445 -267.487)" fill="#fff"/>
        <path id="Path_5" data-name="Path 5" d="M372.057,267.533c-.045,0-.089.005-.134.007H366.58v.012a2.77,2.77,0,0,0-2.531,2.753h0v18.146h0v0a2.66,2.66,0,1,0,5.32,0v0h0v-6.8a2.725,2.725,0,0,0,2.68,2.253h.006a8.2,8.2,0,0,0,8.189-8.183c0-.05,0-.1,0-.151A8.2,8.2,0,0,0,372.057,267.533Zm2.733,8.279a2.735,2.735,0,0,1-2.732,2.639h0a2.727,2.727,0,0,0-2.682,2.256v-7.75h2.278a2.8,2.8,0,0,0,.407.034,2.736,2.736,0,0,1,2.733,2.732Z" transform="translate(-364.049 -267.496)" fill="#fff"/>
        <path id="Path_6" data-name="Path 6" d="M575.176,276.18a6.506,6.506,0,0,1,.48-.733,6.282,6.282,0,0,1,9.409-.717,2.773,2.773,0,1,0,3.874-3.968,11.83,11.83,0,0,0-17.712,1.34,12.59,12.59,0,0,0-.9,1.379,2.774,2.774,0,0,0,4.848,2.7Z" transform="translate(-515.079 -267.395)" fill="#fff"/>
        <path id="Path_7" data-name="Path 7" d="M597.337,326a6.228,6.228,0,0,1-4.488,1.885,6.705,6.705,0,0,1-.862-.054,6.451,6.451,0,0,1-1.565-.429,2.773,2.773,0,1,0-2.143,5.116,11.844,11.844,0,0,0,13.02-2.639,2.773,2.773,0,1,0-3.962-3.88Z" transform="translate(-527.251 -309.764)" fill="#fff"/>
        <path id="Path_8" data-name="Path 8" d="M447.787,285.8c-.022,0-.043,0-.066,0H443V270.332c0-.034.005-.066.005-.1a2.668,2.668,0,1,0-5.337,0c0,.033,0,.064,0,.1v18.037c0,.033,0,.064,0,.1a2.669,2.669,0,0,0,2.668,2.671h.007v0H447.8a2.669,2.669,0,0,0-.012-5.339Z" transform="translate(-418.039 -267.516)" fill="#fff"/>
      </g>
    </g>
  </g>
</svg>
